<svg width="198" height="99" viewBox="0 0 198 99" fill="none" xmlns="http://www.w3.org/2000/svg">
<path d="M65.5144 69.888H54.5704V84H39.4024V69.888H3.21038V59.424L34.8904 16.8H51.2104L21.8344 57.216H39.8824V44.64H54.5704V57.216H65.5144V69.888ZM98.9659 85.152C93.3979 85.152 88.4379 83.776 84.0859 81.024C79.7339 78.272 76.3099 74.304 73.8139 69.12C71.3819 63.872 70.1659 57.632 70.1659 50.4C70.1659 43.168 71.3819 36.96 73.8139 31.776C76.3099 26.528 79.7339 22.528 84.0859 19.776C88.4379 17.024 93.3979 15.648 98.9659 15.648C104.534 15.648 109.494 17.024 113.846 19.776C118.198 22.528 121.59 26.528 124.022 31.776C126.518 36.96 127.766 43.168 127.766 50.4C127.766 57.632 126.518 63.872 124.022 69.12C121.59 74.304 118.198 78.272 113.846 81.024C109.494 83.776 104.534 85.152 98.9659 85.152ZM98.9659 72C103.062 72 106.262 70.24 108.566 66.72C110.934 63.2 112.118 57.76 112.118 50.4C112.118 43.04 110.934 37.6 108.566 34.08C106.262 30.56 103.062 28.8 98.9659 28.8C94.9339 28.8 91.7339 30.56 89.3659 34.08C87.0619 37.6 85.9099 43.04 85.9099 50.4C85.9099 57.76 87.0619 63.2 89.3659 66.72C91.7339 70.24 94.9339 72 98.9659 72ZM196.858 69.888H185.914V84H170.746V69.888H134.554V59.424L166.234 16.8H182.554L153.178 57.216H171.226V44.64H185.914V57.216H196.858V69.888Z" fill="#FF6060"/>
</svg>
